<?xml version="1.0" standalone="no"?>
<!DOCTYPE svg PUBLIC "-//W3C//DTD SVG 20010904//EN"
 "http://www.w3.org/TR/2001/REC-SVG-20010904/DTD/svg10.dtd">
<svg version="1.0" xmlns="http://www.w3.org/2000/svg"
 width="1247.000000pt" height="1280.000000pt" viewBox="0 0 1247.000000 1280.000000"
 preserveAspectRatio="xMidYMid meet">
<g transform="translate(0.000000,1280.000000) scale(0.100000,-0.100000)"
fill="#000000" stroke="none">
<path d="M5990 12790 c-41 -4 -145 -13 -230 -20 -1020 -77 -2024 -423 -2890
-995 -357 -236 -652 -477 -966 -790 -292 -291 -471 -501 -692 -810 -670 -938
-1084 -2070 -1177 -3220 -8 -104 -20 -240 -25 -301 -13 -141 -13 -367 0 -508
5 -61 17 -196 25 -301 143 -1758 1016 -3406 2380 -4490 55 -44 135 -112 177
-152 130 -122 306 -244 493 -341 138 -72 655 -318 768 -366 603 -256 1270
-419 1907 -466 80 -6 192 -15 250 -20 133 -13 321 -13 447 -1 54 6 168 15 253
21 787 58 1605 290 2312 657 558 291 700 377 859 521 35 32 111 96 169 142
688 554 1229 1205 1647 1985 407 758 668 1645 738 2510 8 105 20 240 25 301
13 141 13 367 0 508 -5 61 -17 197 -25 301 -93 1150 -507 2282 -1177 3220
-221 309 -400 519 -692 810 -314 313 -609 554 -966 790 -865 571 -1870 918
-2885 995 -82 6 -194 15 -248 21 -112 10 -367 10 -477 -1z m565 -40 c1456 -86
2768 -649 3855 -1655 154 -143 412 -414 418 -438 4 -20 -131 -152 -232 -228
-111 -83 -331 -213 -350 -206 -8 3 -49 51 -91 107 -423 558 -1042 1105 -1682
1486 -46 27 -83 54 -83 61 0 7 21 25 47 40 62 36 187 130 242 182 33 30 42 44
34 52 -8 8 -31 -6 -85 -53 -73 -63 -219 -165 -270 -188 -24 -11 -34 -8 -108
34 -124 72 -496 253 -670 328 -411 175 -877 328 -1262 413 -226 50 -244 55
-227 66 19 12 253 11 464 -1z m-811 -19 c23 -9 8 -14 -235 -75 -454 -116 -990
-328 -1408 -556 -100 -55 -187 -97 -195 -94 -30 12 -126 173 -126 213 0 15 25
30 120 70 505 213 1082 364 1649 431 183 21 171 21 195 11z m210 -58 c14 -69
46 -830 46 -1094 0 -117 -3 -158 -12 -161 -26 -8 -478 11 -628 26 -194 21
-319 41 -331 53 -6 6 14 58 56 141 172 349 363 629 575 843 107 108 247 219
276 219 7 0 15 -12 18 -27z m143 -33 c99 -67 229 -180 325 -285 179 -193 403
-526 543 -804 26 -52 26 -55 9 -68 -10 -7 -25 -13 -33 -13 -9 0 -54 -5 -101
-10 -177 -21 -481 -40 -637 -40 l-162 0 -5 53 c-3 28 -8 183 -11 342 -5 267
-14 484 -31 773 -5 77 -3 112 4 112 6 0 50 -27 99 -60z m-297 22 c0 -4 -34
-36 -75 -72 -228 -196 -460 -520 -661 -922 l-85 -170 -37 7 c-260 47 -697 203
-697 250 0 41 361 326 620 488 259 163 518 290 780 383 119 43 155 51 155 36z
m456 -26 c364 -124 737 -326 1089 -590 200 -150 444 -371 429 -386 -30 -30
-627 -170 -725 -170 -14 0 -32 26 -65 93 -106 210 -268 467 -404 637 -107 134
-262 293 -362 372 -72 57 -91 78 -70 78 4 0 53 -15 108 -34z m435 -80 c280
-82 596 -195 870 -311 301 -128 719 -343 719 -369 0 -23 -393 -196 -445 -196
-9 0 -67 47 -128 104 -232 216 -457 385 -732 551 -117 70 -344 188 -435 225
-30 13 -62 30 -70 38 -13 13 -10 14 26 8 23 -3 111 -26 195 -50z m-1251 37 c0
-5 -65 -39 -145 -77 -338 -161 -656 -367 -962 -623 -62 -52 -115 -98 -118
-104 -4 -5 -14 -9 -24 -9 -40 0 -241 155 -241 186 0 17 87 66 350 198 323 161
594 271 940 382 164 52 200 61 200 47z m-1671 -446 c17 -35 46 -84 66 -110 20
-27 35 -54 32 -60 -3 -7 -45 -37 -93 -67 -121 -74 -391 -259 -494 -339 -438
-341 -791 -700 -1107 -1128 -58 -79 -111 -143 -117 -143 -21 0 -131 106 -189
182 -59 78 -108 167 -127 235 l-13 42 93 100 c309 333 787 719 1236 997 208
129 634 353 671 354 7 0 25 -28 42 -63z m206 -262 c36 -30 90 -71 120 -91 30
-20 55 -42 55 -48 0 -6 -36 -47 -81 -91 -443 -437 -857 -1044 -1119 -1640 -29
-66 -57 -125 -62 -132 -17 -21 -303 90 -501 195 -145 76 -287 171 -287 192 0
10 38 71 85 135 388 532 868 990 1429 1365 143 95 268 170 284 170 7 0 42 -25
77 -55z m4504 -112 c453 -275 855 -593 1211 -959 236 -242 515 -578 508 -613
-4 -18 -216 -114 -418 -189 -223 -82 -670 -212 -731 -212 -24 0 -30 10 -74
118 -248 607 -624 1204 -1023 1623 -48 51 -82 95 -79 102 3 8 40 26 82 41 85
30 334 142 350 157 19 19 52 7 174 -68z m-4168 -102 c57 -27 151 -66 209 -86
104 -36 360 -105 391 -105 8 0 23 -6 32 -13 16 -11 13 -22 -36 -142 -175 -423
-333 -961 -443 -1506 -26 -129 -50 -238 -55 -243 -23 -26 -808 98 -1130 179
-169 42 -343 96 -350 107 -8 12 2 36 95 236 204 435 456 833 755 1192 109 131
398 430 416 430 7 0 59 -22 116 -49z m3583 -113 c335 -352 633 -782 868 -1253
72 -142 167 -354 204 -452 22 -58 22 -63 6 -72 -20 -10 -255 -59 -462 -95
-192 -34 -457 -71 -682 -96 -207 -23 -200 -25 -212 53 -12 78 -77 371 -118
527 -112 439 -261 872 -408 1194 -17 37 -29 74 -26 81 2 7 47 20 103 30 154
27 387 81 513 118 63 19 122 35 130 36 8 0 46 -32 84 -71z m-2683 -127 c176
-23 368 -37 617 -47 165 -6 173 -8 177 -28 11 -57 22 -1842 11 -1853 -18 -18
-835 3 -1231 33 -288 21 -326 25 -332 39 -5 15 52 301 108 540 107 457 249
902 399 1255 36 82 45 93 76 85 12 -3 91 -14 175 -24z m1807 7 c31 -40 187
-424 267 -660 127 -373 296 -1030 299 -1163 l1 -50 -75 -7 c-346 -32 -900 -58
-1220 -58 l-228 0 -6 443 c-3 243 -8 666 -12 940 l-6 497 37 0 c187 0 879 51
894 66 9 9 39 4 49 -8z m-5294 -775 c30 -88 98 -186 203 -294 57 -58 103 -111
103 -117 0 -6 -29 -56 -65 -111 -249 -383 -458 -827 -620 -1316 -35 -104 -68
-191 -74 -193 -18 -6 -162 108 -280 223 -122 119 -210 229 -261 328 l-33 62
57 112 c84 169 235 428 352 605 187 283 552 748 588 748 8 0 21 -21 30 -47z
m9234 -150 c211 -255 437 -581 606 -877 105 -183 256 -477 256 -500 0 -21
-123 -148 -229 -237 -148 -124 -466 -329 -509 -329 -13 0 -29 35 -64 140 -161
475 -381 922 -660 1336 -48 73 -88 134 -88 136 0 3 57 38 126 78 161 92 304
200 386 290 35 38 68 69 75 70 6 0 51 -48 101 -107z m-8782 -349 c123 -82 377
-208 549 -273 77 -29 131 -55 133 -64 2 -8 -20 -74 -48 -147 -159 -410 -303
-936 -386 -1407 -15 -84 -30 -157 -34 -164 -9 -14 -22 -10 -234 68 -279 103
-582 248 -768 369 -38 24 -71 50 -74 58 -7 18 106 356 184 552 141 353 317
694 518 1004 25 39 48 70 52 70 5 0 53 -30 108 -66z m8147 -124 c262 -384 508
-882 666 -1344 23 -65 41 -128 41 -141 0 -18 -23 -33 -147 -93 -181 -87 -442
-191 -667 -266 -285 -96 -722 -214 -737 -199 -4 4 -20 85 -34 178 -75 487
-191 967 -332 1370 -31 88 -56 173 -57 189 l-1 29 150 38 c350 90 803 250 970
342 52 29 65 20 148 -103z m-7263 -259 c342 -98 712 -168 1235 -234 l100 -12
0 -40 c-1 -22 -17 -146 -38 -275 -61 -389 -109 -807 -143 -1248 -13 -163 -21
-225 -31 -229 -17 -7 -304 29 -573 72 -388 61 -762 143 -1057 231 -107 32
-123 40 -123 58 0 35 48 297 86 471 83 383 218 831 344 1145 12 30 26 65 31
78 5 12 14 22 21 22 7 0 74 -18 148 -39z m5947 -43 c23 -29 148 -409 212 -643
109 -397 237 -1083 208 -1112 -13 -13 -363 -86 -612 -127 -257 -43 -546 -81
-906 -120 -20 -2 -41 -1 -47 3 -5 3 -17 103 -27 221 -41 539 -110 1109 -180
1484 -9 44 -12 83 -8 87 5 4 91 17 193 29 374 43 821 115 1055 169 101 23 101
23 112 9z m-4247 -233 c229 -17 584 -32 975 -41 194 -4 282 -10 287 -17 9 -15
10 -1600 1 -1716 l-6 -84 -396 6 c-395 7 -741 23 -1091 52 -260 22 -291 26
-297 41 -11 28 56 747 102 1106 36 271 95 639 107 661 9 17 17 19 66 13 32 -3
145 -13 252 -21z m2857 -35 c16 -74 78 -468 102 -660 31 -237 59 -518 81 -805
18 -230 18 -261 5 -271 -8 -6 -57 -14 -107 -18 -51 -4 -149 -11 -218 -17 -284
-21 -692 -39 -1045 -46 l-375 -6 0 906 c0 499 1 907 3 907 1 0 166 5 367 10
386 10 665 24 914 45 83 7 176 12 206 11 l55 -1 12 -55z m-6917 -300 c0 -5 28
-51 62 -102 76 -114 263 -304 401 -407 53 -40 97 -78 97 -84 0 -7 -22 -101
-50 -210 -111 -443 -191 -965 -215 -1402 -13 -245 -16 -265 -35 -265 -11 0
-88 35 -172 78 -262 134 -433 249 -574 388 -124 121 -118 100 -84 299 88 518
216 967 405 1419 107 257 132 307 149 300 9 -3 16 -10 16 -14z m11179 -152
c217 -485 398 -1109 476 -1643 8 -60 17 -121 20 -135 3 -22 -9 -36 -91 -100
-133 -105 -281 -197 -474 -294 -206 -104 -418 -193 -429 -180 -5 5 -14 101
-20 214 -33 561 -110 1030 -255 1553 l-24 88 21 13 c12 8 56 33 97 56 205 117
410 270 539 401 47 48 92 88 99 88 7 1 25 -27 41 -61z m-10455 -533 c227 -136
521 -270 810 -371 77 -26 140 -54 144 -62 3 -8 -5 -87 -17 -176 -60 -445 -101
-1018 -101 -1424 0 -113 -3 -154 -13 -157 -27 -11 -550 129 -796 212 -166 56
-410 150 -428 165 -14 11 -13 50 8 348 34 480 102 913 210 1340 49 195 48 190
63 190 7 0 61 -29 120 -65z m9648 -51 c70 -231 158 -644 197 -930 40 -285 80
-809 66 -853 -10 -32 -472 -179 -880 -280 -331 -81 -863 -185 -883 -172 -6 4
-12 199 -15 481 -5 462 -16 671 -53 1030 -9 85 -17 175 -17 200 l-2 45 184 47
c480 124 889 268 1251 441 63 30 119 54 125 53 5 -1 17 -29 27 -62z m-8402
-454 c392 -107 934 -208 1445 -267 l70 -8 0 -90 c0 -49 -6 -227 -14 -395 -7
-168 -16 -505 -20 -750 l-6 -445 -75 2 c-141 5 -643 60 -945 103 -346 51 -801
135 -824 154 -25 20 2 757 44 1186 23 231 66 553 77 567 7 9 20 8 56 -3 26 -8
112 -32 192 -54z m6774 -48 c3 -5 14 -91 25 -193 43 -402 61 -747 61 -1195 0
-280 -3 -344 -14 -353 -28 -23 -771 -119 -1211 -156 -99 -8 -229 -19 -290 -24
-65 -5 -114 -5 -119 0 -6 5 -11 211 -12 511 -2 458 -17 1031 -29 1118 -3 19
-2 40 3 47 4 7 97 22 237 38 421 48 870 119 1170 184 142 32 171 35 179 23z
m-4859 -262 c392 -30 640 -42 1050 -49 l380 -6 0 -830 0 -830 -420 1 c-231 1
-526 7 -655 13 -409 20 -735 43 -747 53 -32 26 8 1625 41 1667 7 9 23 11 55 7
25 -3 158 -15 296 -26z m3239 -52 c25 -284 37 -1600 16 -1613 -43 -27 -1739
-76 -1778 -51 -9 5 -12 179 -11 734 1 400 4 772 8 827 l6 100 355 7 c423 7
1151 43 1265 62 11 2 45 4 77 5 l56 1 6 -72z m-7639 -469 c140 -143 368 -294
641 -426 76 -37 142 -72 146 -77 4 -6 8 -146 8 -311 0 -399 23 -739 76 -1114
18 -132 18 -141 -3 -141 -22 0 -222 107 -365 196 -221 137 -424 308 -527 446
-31 41 -49 57 -64 55 -27 -3 -32 23 -46 274 -19 337 -11 662 24 1007 15 140
19 162 33 162 4 0 39 -32 77 -71z m12211 -104 c113 -1078 -64 -2216 -502
-3228 -210 -484 -574 -1099 -758 -1282 -237 -234 -671 -459 -1240 -644 -106
-35 -193 -58 -198 -53 -5 5 32 52 83 108 364 394 675 844 910 1316 l73 147
141 57 c304 123 633 299 822 440 108 81 218 188 209 202 -5 8 -33 -11 -84 -56
-209 -184 -436 -324 -772 -475 -186 -85 -266 -115 -276 -104 -4 3 3 30 16 59
182 429 314 856 404 1307 20 96 39 178 43 182 4 4 54 28 110 53 375 166 738
392 906 564 87 88 53 87 -47 -2 -152 -135 -304 -239 -537 -368 -162 -88 -410
-201 -421 -190 -6 6 -5 32 1 68 50 285 82 686 88 1101 4 249 9 365 17 371 6 5
49 24 96 42 306 119 680 326 830 459 67 60 73 55 86 -74z m-11303 -441 c229
-97 530 -193 892 -284 l270 -68 2 -29 c1 -15 7 -156 13 -313 16 -411 38 -673
91 -1049 19 -132 27 -217 21 -223 -18 -18 -545 130 -839 235 -207 75 -421 166
-427 183 -16 42 -65 429 -86 684 -13 145 -26 850 -17 874 8 20 7 21 80 -10z
m10244 -363 c-6 -315 -20 -552 -47 -781 -22 -182 -51 -376 -60 -397 -21 -49
-605 -245 -1102 -368 -267 -67 -654 -147 -688 -143 -31 4 -31 -12 8 258 50
345 84 713 102 1115 6 120 14 223 18 227 4 4 84 21 178 37 500 89 942 198
1359 335 121 40 224 71 229 68 5 -3 6 -149 3 -351z m-8865 -31 c444 -89 968
-160 1593 -218 l80 -7 7 -250 c11 -362 36 -833 59 -1119 11 -137 16 -253 12
-257 -9 -9 -198 7 -493 41 -347 40 -715 97 -1025 160 -260 52 -272 55 -279 83
-24 97 -85 608 -106 887 -14 196 -32 689 -25 700 8 13 4 14 177 -20z m7046
-72 c16 -20 -7 -462 -44 -848 -32 -340 -88 -727 -108 -747 -23 -24 -694 -120
-1136 -162 -398 -38 -415 -39 -424 -30 -6 5 -2 120 12 306 30 402 39 559 53
958 6 187 15 344 19 348 4 4 92 15 196 23 475 37 1011 97 1315 148 109 18 105
18 117 4z m-5071 -173 c375 -25 669 -36 1118 -43 237 -4 436 -11 443 -15 10
-7 12 -164 8 -810 -3 -441 -6 -805 -6 -809 0 -24 -916 2 -1530 42 -203 14
-208 15 -215 43 -28 121 -101 1542 -81 1592 7 18 -9 18 263 0z m3393 -10 c28
-34 -55 -1574 -87 -1606 -23 -23 -773 -59 -1305 -62 l-393 -2 -3 804 c-1 452
2 809 7 814 4 4 237 12 517 17 514 9 1126 33 1240 48 6 1 17 -5 24 -13z
m-7600 -369 c166 -174 422 -352 725 -504 l121 -60 18 -99 c52 -285 127 -576
225 -873 63 -190 171 -472 207 -542 27 -52 5 -53 -107 -3 -219 97 -458 234
-618 353 -89 67 -268 237 -305 291 -21 30 -32 37 -50 34 -21 -4 -26 3 -54 79
-63 174 -149 474 -196 683 -60 267 -127 675 -125 773 l0 47 42 -50 c23 -27 76
-85 117 -129z m1317 -752 c189 -67 402 -131 647 -194 103 -27 191 -51 193 -54
3 -3 22 -90 43 -193 88 -436 199 -827 336 -1182 27 -69 41 -118 35 -124 -21
-21 -576 121 -901 231 -238 81 -290 103 -307 128 -49 75 -211 497 -293 764
-82 267 -190 739 -177 774 5 12 30 5 139 -40 73 -31 201 -80 285 -110z m9658
156 c8 -13 -46 -275 -105 -505 -80 -312 -219 -715 -334 -969 -32 -69 -39 -78
-80 -96 -71 -30 -344 -117 -551 -175 -380 -106 -1107 -256 -1130 -233 -4 3 25
100 64 215 119 353 207 682 281 1061 23 114 44 210 48 214 4 4 79 21 167 38
581 114 1133 266 1522 420 111 44 110 44 118 30z m-8529 -459 c444 -88 907
-154 1419 -201 66 -7 123 -15 127 -18 3 -4 12 -54 18 -112 40 -370 108 -806
178 -1148 27 -128 35 -186 27 -192 -10 -8 -260 12 -560 45 -402 45 -991 141
-1022 167 -27 22 -177 447 -258 727 -75 264 -181 741 -170 769 3 7 13 11 22 8
10 -3 109 -23 219 -45z m6671 -47 c14 -37 -100 -552 -199 -897 -69 -245 -174
-550 -197 -577 -13 -15 -51 -24 -192 -44 -364 -52 -1048 -121 -1140 -114 -32
2 -44 7 -43 18 1 8 18 105 38 215 60 335 107 670 146 1033 10 96 22 178 27
183 5 5 110 18 233 29 412 36 977 107 1230 154 41 8 79 14 83 15 4 1 10 -6 14
-15z m-4877 -184 c272 -21 725 -40 1113 -47 362 -6 409 -8 417 -22 10 -20 17
-1418 6 -1428 -26 -27 -1479 26 -1507 54 -13 13 -91 391 -130 632 -56 345
-113 797 -103 813 7 10 50 10 204 -2z m3266 -95 c-15 -219 -90 -760 -152
-1106 -50 -279 -38 -253 -117 -261 -198 -19 -1368 -54 -1403 -41 -17 6 -26
367 -22 948 l3 500 400 7 c378 6 1095 35 1104 44 2 2 47 4 99 4 l95 0 -7 -95z
m-7206 -146 c195 -215 541 -440 950 -618 l95 -41 92 -183 c227 -451 511 -859
876 -1259 59 -64 107 -119 107 -122 0 -13 -43 -3 -165 38 -485 163 -898 394
-1115 624 -152 161 -171 183 -273 339 -233 352 -451 770 -607 1163 -68 172
-66 175 40 59z m10160 -696 c0 -18 -117 -246 -205 -398 -187 -323 -437 -665
-697 -951 -203 -225 -182 -210 -359 -254 -376 -95 -1178 -235 -1202 -211 -5 5
39 78 96 162 242 356 438 722 597 1116 30 73 59 134 66 137 7 3 93 19 191 36
501 88 941 195 1328 325 88 29 166 54 173 54 6 1 12 -6 12 -16z m-8914 -36
c231 -84 483 -158 779 -227 99 -23 202 -48 230 -54 l50 -12 43 -100 c177 -409
434 -848 700 -1192 56 -73 102 -138 102 -143 0 -14 -61 -6 -302 42 -207 40
-448 96 -558 129 -61 18 -72 27 -171 127 -368 376 -682 811 -935 1299 -75 144
-86 174 -64 174 3 0 60 -20 126 -43z m1204 -318 c214 -49 831 -132 1295 -174
99 -9 184 -20 188 -24 5 -5 24 -71 43 -147 102 -404 231 -795 368 -1113 25
-57 33 -87 26 -91 -12 -7 -10 -8 -295 15 -306 25 -810 85 -848 101 -26 11
-238 290 -364 479 -44 66 -119 187 -167 268 -131 224 -336 641 -336 683 0 17
27 18 90 3z m5944 -83 c-35 -116 -248 -567 -372 -786 -127 -225 -338 -546
-389 -592 -20 -19 -216 -43 -573 -72 -313 -25 -397 -29 -404 -18 -3 6 9 50 28
99 108 284 296 952 332 1180 11 73 10 73 209 89 335 26 950 94 1107 123 55 10
70 4 62 -23z m-3997 -136 c89 -5 366 -14 615 -20 249 -6 458 -13 464 -15 7 -2
13 -129 17 -402 4 -219 10 -519 14 -667 l6 -269 -374 7 c-484 9 -697 20 -714
38 -31 33 -163 367 -257 653 -67 204 -188 639 -188 679 0 21 -19 21 417 -4z
m2591 -7 c7 -46 -123 -565 -218 -870 -50 -163 -143 -426 -160 -453 -12 -19
-134 -26 -661 -36 -385 -7 -397 -7 -402 12 -8 26 -31 1289 -24 1307 4 12 59
16 309 21 372 8 857 25 998 36 144 10 154 9 158 -17z m3482 -423 c0 -14 -154
-196 -308 -363 -220 -238 -635 -613 -666 -601 -8 3 -29 -13 -52 -41 -61 -72
-330 -265 -591 -423 -312 -189 -863 -363 -1478 -467 -272 -46 -319 -51 -313
-35 2 7 67 41 143 76 510 232 985 519 1381 835 114 91 253 212 426 369 l67 61
193 59 c443 135 832 306 1103 487 82 54 95 60 95 43z m-9379 -112 c260 -174
571 -317 954 -438 72 -22 140 -46 152 -53 12 -6 75 -61 140 -121 380 -352 811
-658 1313 -931 105 -58 404 -205 416 -205 1 0 32 -14 68 -31 70 -33 78 -54 17
-45 -489 75 -852 162 -1179 284 -189 71 -443 217 -764 438 -167 116 -238 180
-293 263 -43 65 -54 72 -62 41 -3 -11 -9 -20 -14 -20 -12 0 -147 116 -319 276
-216 199 -580 597 -580 633 0 11 3 11 19 0 10 -8 70 -48 132 -91z m7879 -522
c0 -13 -139 -140 -310 -283 -439 -367 -1016 -715 -1583 -957 -95 -40 -188 -78
-207 -85 -34 -11 -329 -41 -402 -41 -21 0 -38 4 -38 10 0 5 42 37 93 71 409
274 756 600 1104 1037 16 21 41 26 258 57 360 51 697 114 935 174 134 34 150
36 150 17z m-6480 -41 c157 -38 496 -106 628 -126 l83 -13 124 -136 c323 -356
743 -697 1150 -935 157 -91 150 -87 134 -95 -8 -4 -57 -3 -109 2 -104 10 -169
33 -420 148 -510 232 -1010 537 -1415 865 -260 209 -405 352 -337 331 9 -3 82
-21 162 -41z m918 -169 c191 -29 510 -61 904 -92 l88 -6 88 -172 c173 -333
342 -583 535 -794 43 -46 77 -90 77 -99 0 -12 -17 -13 -117 -8 -225 13 -239
17 -364 85 -318 176 -621 389 -899 636 -139 122 -440 431 -440 450 0 17 7 17
128 0z m4172 -35 c0 -21 -196 -247 -355 -409 -278 -285 -540 -496 -850 -685
-60 -37 -61 -37 -203 -44 -108 -5 -142 -3 -142 6 0 7 24 42 54 79 172 215 374
569 501 881 26 63 45 96 59 101 12 5 134 16 271 25 138 9 324 25 415 35 195
21 250 23 250 11z m-2457 -88 c298 -5 372 -9 383 -20 10 -10 14 -41 14 -110 0
-52 7 -251 16 -441 9 -191 17 -378 18 -417 l1 -70 -190 2 -190 1 -84 88 c-170
178 -355 435 -502 699 -65 118 -139 267 -139 282 0 3 69 3 153 0 83 -4 318
-10 520 -14z m1457 1 c0 -49 -218 -492 -330 -672 -70 -112 -234 -335 -270
-367 -20 -18 -39 -20 -191 -23 -113 -3 -174 0 -183 7 -16 13 -21 84 -41 526
-20 438 -20 511 1 519 9 3 127 7 262 7 136 1 326 5 422 8 318 13 330 13 330
-5z m1720 -753 c0 -24 -431 -201 -720 -295 -469 -154 -936 -248 -1414 -286
-170 -13 -263 -13 -250 0 6 6 87 30 180 55 217 56 388 109 600 185 157 56 183
63 356 85 403 53 765 126 1061 215 174 52 187 54 187 41z m-4835 -116 c226
-56 499 -107 720 -135 103 -13 199 -32 245 -47 41 -14 171 -58 288 -99 117
-41 286 -94 374 -118 198 -54 222 -71 88 -62 -531 38 -1197 197 -1741 416
-261 105 -255 115 26 45z m1398 -255 c114 -53 156 -80 127 -80 -13 0 -266 82
-347 112 -77 28 -68 42 21 34 62 -6 95 -16 199 -66z m1787 59 c0 -14 -42 -30
-246 -93 -222 -69 -422 -121 -431 -113 -9 9 -18 4 177 103 l175 89 120 11
c164 15 205 16 205 3z m-1548 -19 c55 0 58 -2 131 -63 41 -35 93 -77 115 -93
84 -59 43 -59 -121 0 -168 62 -339 138 -345 155 -4 12 9 13 79 8 46 -4 109 -7
141 -7z m1096 -12 c-7 -26 -372 -195 -401 -185 -11 3 165 178 191 189 9 4 61
7 115 7 74 1 98 -2 95 -11z m-640 -10 c13 -17 26 -214 14 -222 -23 -14 -332
194 -332 224 0 16 305 13 318 -2z m352 -2 c0 -18 -155 -153 -226 -196 -44 -26
-57 -31 -64 -20 -11 17 -24 194 -16 215 8 22 306 23 306 1z"/>
</g>
</svg>
